<mxfile host="app.diagrams.net" modified="2021-03-21T18:44:44.513Z" agent="5.0 (Windows NT 10.0; Win64; x64) AppleWebKit/537.36 (KHTML, like Gecko) Chrome/89.0.4389.90 Safari/537.36" etag="azFvqnecaRfjh--GEFuu" version="14.4.8" type="github">
  <diagram id="VsCYafETnWa5NlrTcynY" name="Page-1">
    <mxGraphModel dx="1038" dy="580" grid="1" gridSize="10" guides="1" tooltips="1" connect="1" arrows="1" fold="1" page="1" pageScale="1" pageWidth="827" pageHeight="1169" math="0" shadow="0">
      <root>
        <mxCell id="0" />
        <mxCell id="1" parent="0" />
        <mxCell id="EwdOZo1DDRDLrgm2m6_3-1" value="Начало" style="rounded=1;whiteSpace=wrap;html=1;" vertex="1" parent="1">
          <mxGeometry x="334" y="40" width="160" height="40" as="geometry" />
        </mxCell>
        <mxCell id="EwdOZo1DDRDLrgm2m6_3-3" value="" style="strokeWidth=2;html=1;shape=mxgraph.flowchart.annotation_1;align=left;pointerEvents=1;" vertex="1" parent="1">
          <mxGeometry x="530" y="5" width="60" height="110" as="geometry" />
        </mxCell>
        <mxCell id="EwdOZo1DDRDLrgm2m6_3-4" value="" style="endArrow=none;dashed=1;html=1;dashPattern=1 3;strokeWidth=2;exitX=1;exitY=0.5;exitDx=0;exitDy=0;entryX=0;entryY=0.5;entryDx=0;entryDy=0;entryPerimeter=0;" edge="1" parent="1" source="EwdOZo1DDRDLrgm2m6_3-1" target="EwdOZo1DDRDLrgm2m6_3-3">
          <mxGeometry width="50" height="50" relative="1" as="geometry">
            <mxPoint x="380" y="320" as="sourcePoint" />
            <mxPoint x="430" y="270" as="targetPoint" />
          </mxGeometry>
        </mxCell>
        <mxCell id="EwdOZo1DDRDLrgm2m6_3-5" value="outputResult&lt;br&gt;Возвращает результат&amp;nbsp;" style="text;html=1;strokeColor=none;fillColor=none;align=center;verticalAlign=middle;whiteSpace=wrap;rounded=0;" vertex="1" parent="1">
          <mxGeometry x="530" y="30" width="180" height="60" as="geometry" />
        </mxCell>
      </root>
    </mxGraphModel>
  </diagram>
</mxfile>
